<svg xmlns="http://www.w3.org/2000/svg" version="1.1" xmlns:xlink="http://www.w3.org/1999/xlink" xmlns:svgjs="http://svgjs.com/svgjs" width="1600" height="800" preserveAspectRatio="none" viewBox="0 0 1600 800"><g mask="url(&quot;#SvgjsMask1095&quot;)" fill="none"><rect width="1600" height="800" x="0" y="0" fill="rgba(139, 207, 244, 1)"></rect><path d="M0,555.484C110.898,540.06,229.237,563.681,325.399,506.331C422.881,448.194,483.758,345.635,527.488,240.896C570.212,138.567,575.476,28.694,571.083,-82.109C566.248,-204.067,579.336,-340.513,500.738,-433.892C421.977,-527.465,286.647,-546.574,165.57,-563.88C56.94,-579.407,-46.696,-545.75,-154.919,-527.605C-279.69,-506.686,-434.712,-544.073,-518.409,-449.204C-602.014,-354.44,-537.1,-204.812,-550.558,-79.158C-563.387,40.62,-623.268,154.771,-595.656,272.027C-565.058,401.964,-509.817,548.368,-389.278,605.729C-268.695,663.111,-132.267,573.88,0,555.484" fill="#37acec"></path><path d="M1600 1561.606C1739.102 1530.557 1789.375 1357.868 1904.694 1274.113 2010.393 1197.345 2161.746 1195.661 2243.806 1094.016 2335.14 980.883 2428.2870000000003 824.505 2377.727 688.1800000000001 2325.324 546.885 2130.013 533.0360000000001 2004.703 449.323 1918.085 391.457 1852.494 308.815 1754.988 272.158 1652.087 233.47299999999996 1543.221 221.96900000000005 1434.037 234.78300000000002 1308.749 249.48699999999997 1163.8319999999999 255.14599999999996 1081.99 351.142 1000.183 447.098 1046.461 593.1510000000001 1022.902 717.026 997.874 848.623 908.224 971.4449999999999 939.234 1101.762 972.105 1239.9 1076.702 1351.804 1193.251 1432.914 1312.388 1515.824 1458.339 1593.226 1600 1561.606" fill="#dff2fc"></path></g><defs><mask id="SvgjsMask1095"><rect width="1600" height="800" fill="#ffffff"></rect></mask></defs></svg>